<svg xmlns="http://www.w3.org/2000/svg" xmlns:xlink="http://www.w3.org/1999/xlink" preserveAspectRatio="xMidYMid" width="49" height="52.03" viewBox="0 0 49 52.03">
  <defs>
    <style>
      .cls-1 {
        fill: #000;
        filter: url(#color-overlay-1);
        fill-rule: evenodd;
      }
    </style>

    <filter id="color-overlay-1" filterUnits="userSpaceOnUse">
      <feFlood flood-color="#fff"/>
      <feComposite operator="in" in2="SourceGraphic"/>
      <feBlend in2="SourceGraphic" result="solidFill"/>
    </filter>
  </defs>
  <path d="M45.000,49.028 L38.000,49.028 L38.000,52.028 L11.000,52.028 L11.000,49.028 L4.000,49.028 C1.791,49.028 -0.000,47.236 -0.000,45.029 L-0.000,16.028 C-0.000,13.818 1.791,12.028 4.000,12.028 L17.830,12.028 C18.169,11.462 18.554,10.935 19.010,10.480 L10.233,1.580 C9.877,1.219 9.877,0.635 10.233,0.273 C10.589,-0.087 11.165,-0.087 11.521,0.273 L20.462,9.340 C21.656,8.612 23.044,8.205 24.500,8.205 C25.956,8.205 27.344,8.612 28.538,9.340 L37.479,0.273 C37.834,-0.087 38.411,-0.087 38.767,0.273 C39.123,0.635 39.123,1.219 38.767,1.580 L29.990,10.480 C30.446,10.934 30.831,11.462 31.170,12.028 L45.000,12.028 C47.209,12.028 49.000,13.818 49.000,16.028 L49.000,45.029 C49.000,47.236 47.209,49.028 45.000,49.028 ZM36.000,50.028 L36.000,49.028 L13.000,49.028 L13.000,50.028 L36.000,50.028 ZM24.500,10.051 C22.784,10.051 21.195,10.793 20.077,12.028 L28.924,12.028 C27.806,10.793 26.216,10.051 24.500,10.051 ZM47.000,16.028 C47.000,14.923 46.104,14.027 45.000,14.027 L4.000,14.027 C2.895,14.027 2.000,14.923 2.000,16.028 L2.000,45.029 C2.000,46.132 2.895,47.028 4.000,47.028 L12.000,47.028 L13.000,47.028 L36.000,47.028 L38.000,47.028 L45.000,47.028 C46.104,47.028 47.000,46.132 47.000,45.029 L47.000,16.028 ZM4.000,16.028 L45.000,16.028 L45.000,45.029 L4.000,45.029 L4.000,16.028 ZM6.000,43.028 L43.000,43.028 L43.000,18.027 L6.000,18.027 L6.000,43.028 ZM40.000,41.028 C39.448,41.028 39.000,40.580 39.000,40.028 L39.000,24.028 C39.000,23.475 39.448,23.028 40.000,23.028 C40.552,23.028 41.000,23.475 41.000,24.028 L41.000,40.028 C41.000,40.580 40.552,41.028 40.000,41.028 ZM40.000,22.027 C39.448,22.027 39.000,21.580 39.000,21.027 C39.000,20.475 39.448,20.028 40.000,20.028 C40.552,20.028 41.000,20.475 41.000,21.027 C41.000,21.580 40.552,22.027 40.000,22.027 Z" class="cls-1"/>
</svg>
