<svg xmlns="http://www.w3.org/2000/svg" xmlns:xlink="http://www.w3.org/1999/xlink" preserveAspectRatio="xMidYMid" width="39" height="39" viewBox="0 0 39 39">
  <defs>
    <style>
      .cls-1 {
        fill: #000;
        filter: url(#color-overlay-1);
        fill-rule: evenodd;
      }
    </style>

    <filter id="color-overlay-1" filterUnits="userSpaceOnUse">
      <feFlood flood-color="#2f2f2f"/>
      <feComposite operator="in" in2="SourceGraphic"/>
      <feBlend in2="SourceGraphic" result="solidFill"/>
    </filter>
  </defs>
  <path d="M19.500,38.999 C8.730,38.999 -0.000,30.268 -0.000,19.499 C-0.000,8.730 8.730,-0.001 19.500,-0.001 C30.269,-0.001 39.000,8.730 39.000,19.499 C39.000,30.268 30.269,38.999 19.500,38.999 ZM19.500,1.999 C9.835,1.999 2.000,9.834 2.000,19.499 C2.000,29.164 9.835,36.999 19.500,36.999 C29.165,36.999 37.000,29.164 37.000,19.499 C37.000,9.834 29.165,1.999 19.500,1.999 ZM28.236,30.013 C27.957,30.291 27.141,30.465 27.115,30.465 C22.176,30.508 17.420,28.568 13.925,25.073 C10.421,21.567 8.479,16.795 8.531,11.839 C8.531,11.836 8.710,11.043 8.988,10.767 L10.550,9.206 C11.121,8.633 12.218,8.373 12.987,8.630 L13.316,8.739 C14.082,8.996 14.887,9.844 15.099,10.624 L15.884,13.507 C16.096,14.290 15.810,15.404 15.239,15.976 L14.196,17.018 C15.220,20.808 18.193,23.781 21.983,24.807 L23.025,23.765 C23.599,23.191 24.713,22.905 25.494,23.117 L28.376,23.905 C29.157,24.119 30.004,24.919 30.261,25.686 L30.371,26.019 C30.626,26.785 30.369,27.883 29.797,28.451 L28.236,30.013 Z" class="cls-1"/>
</svg>
